
<svg version="1.1" id="Layer_1" xmlns="http://www.w3.org/2000/svg" xmlns:xlink="http://www.w3.org/1999/xlink" 
	 viewBox="0 0 512.001 512.001" xml:space="preserve">
<g>
<rect x="37.631" y="68.353" transform="matrix(-0.9657 0.2596 -0.2596 -0.9657 518.8725 143.2462)" style="fill:#BBDCE3;" width="424.693" height="75.066"/>
<rect x="52.142" y="177.1" style="fill:#BBDCE3;" width="424.7" height="75.067"/>
</g>
<rect x="52.142" y="251.708" style="fill:#FECC85;" width="424.7" height="245.771"/>
<path style="fill:#FF5E8A;" d="M308.141,302.344c-24.457,0-43.646,27.27-43.646,27.27s-18.1-27.27-43.656-27.27
	c-24.857,0-45.157,20.503-46.485,45.327c-0.748,14.025,3.772,24.698,10.142,34.363c12.728,19.312,68.375,65.808,80.082,65.808
	c11.947,0,67.099-46.325,79.912-65.808c6.382-9.711,10.891-20.339,10.14-34.363C353.3,322.847,333.001,302.344,308.141,302.344"/>
<path d="M476.841,162.585H239.564l228.993-61.557c3.719-0.999,6.886-3.434,8.808-6.77s2.441-7.298,1.441-11.016L459.318,10.75
	c-2.081-7.741-10.034-12.326-17.785-10.251l-2.138,0.575c-0.048,0.012-0.094,0.025-0.142,0.038L327.198,31.234
	c-0.03,0.009-0.061,0.016-0.091,0.025L215.051,61.382c-0.045,0.012-0.09,0.025-0.135,0.036l-112.06,30.125
	c-0.029,0.007-0.057,0.016-0.086,0.023l-71.373,19.186c-7.742,2.081-12.331,10.045-10.251,17.785l16.481,61.308v61.868v0.454
	v245.318c0,8.015,6.5,14.515,14.515,14.515h424.698c8.015,0,14.515-6.5,14.515-14.515v-245.32v-0.454V177.1
	C491.356,169.084,484.856,162.585,476.841,162.585z M188.679,98.533l-32.507,56.407l-28.435,7.644H90.48l25.677-44.556
	L188.679,98.533z M300.85,68.378l-32.505,56.409l-72.524,19.495l32.507-56.407L300.85,68.378z M413.022,38.224l-32.505,56.409
	l-72.525,19.497l32.507-56.407L413.022,38.224z M323.358,191.615l-45.583,45.582h-75.096l45.582-45.582H323.358z M439.512,191.615
	l-45.582,45.582h-75.097l45.583-45.582H439.512z M161.623,237.198H86.526l45.582-45.582h75.096L161.623,237.198z M66.657,191.615
	h24.396l-24.396,24.396V191.615z M434.986,237.198l27.339-27.339v27.339H434.986z M420.163,83.975l19.625-34.056l7.216,26.84
	L420.163,83.975z M76.509,128.687l-17.225,29.891l-6.333-23.558L76.509,128.687z M66.657,482.97V266.682h395.668V482.97H66.657z"/>
<path d="M308.141,287.827c-18.437,0-33.681,10.551-43.538,19.854c-9.754-9.309-24.953-19.854-43.763-19.854
	c-32.421,0-59.206,25.944-60.98,59.068c-1.068,20.003,6.631,34.192,12.516,43.125c8.04,12.199,27.634,30.388,43.29,43.341
	c35.043,28.994,44.76,28.994,48.91,28.994c4.202,0,14.039,0,48.903-28.945c15.539-12.901,35.031-31.076,43.139-43.405
	c5.88-8.946,13.575-23.147,12.503-43.11C367.351,313.773,340.565,287.827,308.141,287.827z M332.362,374.058
	c-10.439,15.877-54.149,52.542-67.751,58.759c-13.721-6.308-57.604-43.003-67.995-58.768c-5.924-8.992-8.248-16.649-7.77-25.602
	c0.935-17.418,15.284-31.589,31.991-31.589c14.367,0,27.679,15.038,31.565,20.781c2.64,3.979,7.085,6.382,11.86,6.464
	c4.742,0.105,9.3-2.211,12.074-6.098c4.202-5.882,18.105-21.147,31.803-21.147c16.71,0,31.061,14.171,31.994,31.589
	C340.62,357.5,338.367,364.922,332.362,374.058z"/>
<path d="M119.34,337.54c-8.015,0-14.515,6.5-14.515,14.515v76.319c0,8.015,6.5,14.515,14.515,14.515s14.515-6.5,14.515-14.515
	v-76.319C133.855,344.04,127.356,337.54,119.34,337.54z"/>
<path d="M132.739,303.198c-0.363-0.885-0.814-1.727-1.335-2.51c-0.523-0.8-1.132-1.54-1.8-2.208c-0.668-0.668-1.408-1.277-2.208-1.8
	c-0.784-0.521-1.624-0.973-2.51-1.335c-0.872-0.363-1.785-0.653-2.714-0.826c-1.872-0.393-3.803-0.393-5.675,0
	c-0.914,0.173-1.829,0.463-2.714,0.826c-0.871,0.363-1.713,0.814-2.497,1.335c-0.798,0.523-1.539,1.132-2.206,1.8
	c-0.669,0.668-1.279,1.408-1.814,2.208c-0.523,0.782-0.974,1.624-1.337,2.51c-0.363,0.871-0.637,1.785-0.826,2.714
	c-0.189,0.929-0.276,1.887-0.276,2.83c0,0.942,0.089,1.901,0.276,2.845c0.189,0.914,0.463,1.829,0.826,2.714
	c0.363,0.871,0.814,1.713,1.337,2.497c0.536,0.798,1.145,1.539,1.814,2.206c0.668,0.668,1.408,1.279,2.206,1.814
	c0.784,0.509,1.626,0.958,2.497,1.321c0.885,0.363,1.8,0.653,2.714,0.827c0.943,0.189,1.903,0.29,2.845,0.29
	c0.943,0,1.903-0.102,2.83-0.29c0.929-0.174,1.843-0.465,2.714-0.827c0.885-0.363,1.726-0.813,2.51-1.321
	c0.8-0.536,1.54-1.147,2.208-1.814c0.668-0.668,1.277-1.408,1.8-2.206c0.521-0.784,0.973-1.626,1.335-2.497
	c0.363-0.885,0.637-1.8,0.826-2.714c0.19-0.943,0.29-1.903,0.29-2.845c0-0.943-0.1-1.903-0.29-2.83
	C133.378,304.984,133.102,304.068,132.739,303.198z"/>
</svg>